<svg xmlns="http://www.w3.org/2000/svg" width="132" height="20" viewBox="0 0 132 20" fill="none"><g clip-path="url(#clip0_2450_121276)"><path d="M39.1941 0.688767C39.1812 0.643708 39.1425 0.61152 39.0974 0.61152H32.3889C32.3438 0.61152 32.3051 0.643706 32.2923 0.682329L27.6008 19.2404C27.5815 19.3112 27.633 19.3756 27.7039 19.3756H32.5178C32.5758 19.3756 32.6274 19.337 32.6402 19.279L33.3556 15.5069H37.6281L38.2339 19.279C38.2403 19.337 38.2919 19.382 38.3563 19.382H43.2153C43.2862 19.382 43.3377 19.3177 43.3184 19.2533L39.1876 0.695203L39.1941 0.688767ZM33.9098 12.0116L35.5724 3.86869H35.7528L37.1512 12.0116H33.9033H33.9098ZM13.9519 14.1938C13.9519 15.3975 13.6296 16.9295 12.6694 17.9401C11.4837 19.3885 9.35064 19.7747 6.88893 19.7361C4.42077 19.7554 2.41016 19.2919 1.26308 17.9015C0.309326 16.8909 0 15.8674 0 13.4857V12.3978C0 12.3334 0.0515545 12.2755 0.122442 12.2755H4.65921C4.72365 12.2755 4.78165 12.327 4.78165 12.3978V15.0821C4.78165 15.1722 4.82676 15.2623 4.89765 15.3138L6.82448 16.7686C6.89537 16.8201 6.99204 16.8201 7.06292 16.7686L8.98976 15.3138C9.06065 15.2559 9.10576 15.1722 9.10576 15.0821V13.9556C9.10576 13.5758 8.89954 13.2218 8.57088 13.0351C7.19181 12.2433 3.56368 10.4538 2.11372 9.54619C0.953753 8.82523 0.212661 7.7953 0.154662 5.72256C0.115997 4.38365 0.509097 3.02542 1.43707 2.0148C2.49393 0.682328 4.58832 0.238171 6.89537 0.238171C9.5053 0.238171 11.6255 0.778885 12.7403 2.14355C13.4363 2.90312 13.765 3.85581 13.765 5.9543V7.4477C13.765 7.51207 13.7134 7.57 13.6425 7.57H9.23464C9.1702 7.57 9.1122 7.51851 9.1122 7.4477V4.68619C9.1122 4.59607 9.06709 4.50595 8.99621 4.45446L7.06937 2.99968C6.99848 2.94818 6.90182 2.94818 6.83093 2.99968L4.90409 4.45446C4.83321 4.51239 4.7881 4.59607 4.7881 4.68619V5.74187C4.7881 6.12166 4.99431 6.4757 5.32297 6.66237C6.6956 7.44126 10.3173 9.29514 11.9155 10.3058C13.0883 11.046 13.9519 12.3206 13.9583 14.1873L13.9519 14.1938ZM15.7691 19.3756H20.2286C20.293 19.3756 20.351 19.3241 20.351 19.2533V12.2948L23.7794 13.7174C24.92 13.6981 25.8544 13.5565 26.7824 12.7325C28.2775 11.4001 28.6577 9.47538 28.7221 7.20309C28.7608 4.9308 28.5675 2.69713 26.7115 1.55777C25.6031 0.875441 24.0823 0.617959 22.9029 0.617959H15.7756C15.7111 0.617959 15.6531 0.669455 15.6531 0.740262V19.2597C15.6531 19.3241 15.7047 19.382 15.7756 19.382L15.7691 19.3756ZM20.351 3.86869H22.2456C23.6247 3.86869 24.3078 5.07885 24.3078 7.03573C24.3078 8.9926 23.6247 10.235 22.2456 10.235H20.351V3.87512V3.86869ZM55.4852 1.42903C54.3768 0.740262 52.8688 0.617959 51.6766 0.617959H44.5493C44.4848 0.617959 44.4268 0.669455 44.4268 0.740262V19.2597C44.4268 19.3241 44.4784 19.382 44.5493 19.382H49.1376V12.1017L51.6702 13.1252C52.8817 13.5887 52.7013 14.2581 52.7013 15.4168V19.382H57.3218C57.3863 19.382 57.4443 19.3305 57.4443 19.2597V15.0177C57.4443 12.9965 56.5292 12.2755 55.2081 11.915L53.3199 11.3614C54.2543 11.3614 55.4659 11.0589 56.2263 10.3766C57.4443 9.28226 57.4507 7.87898 57.4507 5.94142C57.4507 3.01899 56.6452 2.14355 55.4916 1.42903H55.4852ZM50.9484 9.8616H49.086V3.86869H50.9484C52.3339 3.86869 53.0815 4.79562 53.0815 6.86192C53.0815 8.92822 52.3339 9.85516 50.9484 9.85516V9.8616ZM58.5076 4.93724V0.733826C58.5076 0.669456 58.5591 0.61152 58.63 0.61152H70.6937C70.7581 0.61152 70.8161 0.663019 70.8161 0.733826V4.93724C70.8161 5.00161 70.7646 5.05954 70.6937 5.05954H63.8563L67.0204 6.36627C67.072 6.39202 67.1107 6.44351 67.1107 6.50145V19.2597C67.1107 19.3241 67.0591 19.382 66.9882 19.382H62.3161C62.2517 19.382 62.1937 19.3305 62.1937 19.2597V5.0531H58.63C58.5656 5.0531 58.5076 5.00161 58.5076 4.9308V4.93724ZM80.779 0.688767C80.7661 0.643708 80.7274 0.61152 80.6823 0.61152H73.9738C73.9287 0.61152 73.89 0.643706 73.8772 0.682329L69.1857 19.2404C69.1664 19.3112 69.2179 19.3756 69.2888 19.3756H74.1027C74.1607 19.3756 74.2122 19.337 74.2251 19.279L74.9405 15.5069H79.213L79.8188 19.279C79.8252 19.337 79.8768 19.382 79.9412 19.382H84.8002C84.8711 19.382 84.9226 19.3177 84.9033 19.2533L80.7725 0.695203L80.779 0.688767ZM75.4947 12.0116L77.1573 3.86869H77.3377L78.7361 12.0116H75.4882H75.4947ZM88.8214 19.2147C88.9245 19.6717 89.3305 20 89.8009 20H127.687C128.028 20 128.344 19.8262 128.531 19.543L131.76 14.5285C131.979 14.1938 132.05 13.7818 131.966 13.3891L129.163 0.785322C129.059 0.328289 128.653 0 128.183 0H90.2972C89.9556 0 89.6398 0.1738 89.453 0.457032L86.2244 5.47152C86.0053 5.80624 85.9344 6.21821 86.0182 6.61088L88.8214 19.2147ZM117.466 4.15191H119.535V8.50338H119.619C119.941 7.84036 120.572 6.86836 122.125 6.86836C124.162 6.86836 125.76 8.53557 125.76 11.6125C125.76 14.6894 124.194 16.3888 122.138 16.3888C120.617 16.3888 119.941 15.4361 119.619 14.7538H119.49V16.215H117.466V4.14548V4.15191ZM107.903 6.99067H109.972V12.533C109.972 13.7045 110.635 14.4512 111.634 14.4512C112.536 14.4512 113.509 13.756 113.509 12.3463V6.99067H115.565V16.2214H113.574V14.5864H113.477C113.071 15.6035 112.15 16.3373 110.842 16.3373C109.114 16.3373 107.916 15.0821 107.896 12.8677V6.98423L107.903 6.99067ZM104.114 4.15191H106.182V16.2214H104.114V4.15191ZM97.6887 3.73994C100.647 3.73994 102.09 5.32346 102.445 8.05922H100.324C100.08 6.57869 99.3514 5.729 97.721 5.729C95.5235 5.729 94.4795 7.2739 94.4795 10.0676C94.4795 12.8613 95.5428 14.3997 97.721 14.3997C99.3127 14.3997 100.047 13.5822 100.324 12.1403H102.445C102.122 14.5027 100.872 16.3888 97.6887 16.3888C94.1573 16.3888 92.3658 14.0264 92.3658 10.0676C92.3658 6.10879 94.1959 3.73994 97.6887 3.73994ZM119.483 11.5932C119.483 9.81011 120.224 8.63212 121.552 8.63212C122.879 8.63212 123.653 9.87448 123.653 11.5932C123.653 13.3119 122.925 14.6057 121.552 14.6057C120.179 14.6057 119.483 13.3956 119.483 11.5932Z" fill="#FA0030"></path></g><defs><clipPath id="clip0_2450_121276"><rect width="132" height="20" fill="white"></rect></clipPath></defs></svg>